<svg width="1600" height="900" viewBox="0 0 1600 900" fill="none" xmlns="http://www.w3.org/2000/svg">
  <defs>
    <linearGradient id="sky" x1="0" y1="0" x2="0" y2="900" gradientUnits="userSpaceOnUse">
      <stop stop-color="#07111f"/>
      <stop offset="0.55" stop-color="#12304f"/>
      <stop offset="1" stop-color="#1b5a6f"/>
    </linearGradient>
    <linearGradient id="sun" x1="0" y1="0" x2="1" y2="1">
      <stop stop-color="#fde68a"/>
      <stop offset="1" stop-color="#f59e0b"/>
    </linearGradient>
    <linearGradient id="water" x1="0" y1="620" x2="0" y2="900">
      <stop stop-color="#0f172a"/>
      <stop offset="1" stop-color="#082f49"/>
    </linearGradient>
  </defs>
  <rect width="1600" height="900" fill="url(#sky)"/>
  <circle cx="1220" cy="180" r="92" fill="url(#sun)" fill-opacity="0.95"/>
  <path d="M0 640C180 610 310 586 455 604C595 622 676 695 814 699C944 703 1043 641 1167 620C1320 594 1460 613 1600 636V900H0V640Z" fill="url(#water)"/>
  <path d="M0 590C126 546 257 507 393 521C507 533 584 604 700 612C814 620 911 563 1018 531C1185 483 1362 508 1600 566V710C1407 684 1276 678 1142 702C1000 728 900 780 754 779C608 779 525 725 406 705C261 680 128 696 0 714V590Z" fill="#1e3a5f" fill-opacity="0.85"/>
  <path d="M0 520C122 470 251 427 394 438C523 447 604 512 724 517C856 523 949 449 1074 415C1240 370 1403 397 1600 468V592C1415 547 1278 537 1132 561C990 585 893 631 744 634C600 637 519 582 395 562C261 540 133 558 0 581V520Z" fill="#2a4b6f" fill-opacity="0.95"/>
  <path d="M0 430C142 376 248 350 375 353C501 356 601 409 722 416C861 424 953 373 1082 336C1235 292 1417 315 1600 392V490C1407 447 1286 441 1147 461C999 483 919 530 784 532C648 534 566 490 438 471C302 451 155 462 0 491V430Z" fill="#305c79"/>
  <path d="M150 490C220 430 290 412 367 423C430 432 470 470 520 481C584 494 640 460 700 435C746 416 804 404 868 413C944 424 1001 468 1060 481C1138 499 1206 459 1270 430C1338 399 1410 389 1520 418L1600 430V900H0V570C46 544 96 532 150 490Z" fill="#10263d" fill-opacity="0.9"/>
  <path d="M1020 304C1066 255 1097 236 1134 234C1172 232 1197 249 1226 267C1245 279 1270 294 1286 327C1304 363 1298 388 1284 420C1260 471 1212 501 1160 520C1112 538 1055 540 1019 519C979 497 962 459 959 420C957 376 986 337 1020 304Z" fill="#13324e"/>
  <path d="M1124 276C1110 252 1098 234 1082 214C1110 221 1140 236 1161 257C1180 275 1194 300 1200 323C1178 316 1155 301 1124 276Z" fill="#1f513d"/>
  <path d="M1160 248C1178 224 1191 212 1212 200C1222 222 1226 245 1221 270C1205 264 1186 259 1160 248Z" fill="#2f7d5f"/>
  <path d="M1088 258C1066 228 1050 209 1026 189C1016 218 1013 242 1016 270C1036 265 1058 265 1088 258Z" fill="#256f54"/>
  <path d="M1010 304C972 302 945 311 919 321C942 343 969 353 1005 360C1008 341 1011 323 1010 304Z" fill="#174e38"/>
  <path d="M0 885C214 848 417 839 612 848C840 858 1048 874 1278 857C1405 848 1499 838 1600 820V900H0V885Z" fill="#04111f"/>
  <path d="M0 688C194 655 384 636 566 642C757 648 941 684 1116 690C1265 695 1413 674 1600 650V720C1409 742 1245 758 1094 748C907 737 737 694 550 690C364 686 181 705 0 728V688Z" fill="#0a1e31" fill-opacity="0.8"/>
</svg>